<?xml version="1.0"?>
<!-- Generated by SVGo -->
<svg width="357.664mm" height="105.252mm"
     viewBox="0.000 0.000 357.664 105.252"
     xmlns="http://www.w3.org/2000/svg" 
     xmlns:xlink="http://www.w3.org/1999/xlink">
<polygon points="352.664,100.252 5.001,100.252 5.001,5.001 352.664,5.001" style="fill:none;stroke-width:0.050000mm;stroke:black"/>
<polygon points="17.051,83.726 17.051,88.426 15.526,88.426 15.526,85.196 13.801,85.196 13.801,84.275 10.501,84.275 10.501,85.196 8.776,85.196 8.776,88.426 7.950,88.426 7.950,91.226 8.776,91.226 8.776,97.495 10.501,97.495 10.501,98.476 13.801,98.476 13.801,97.495 15.526,97.495 15.526,93.025 17.051,93.025 17.051,97.726 31.051,97.726 31.051,93.025 32.576,93.025 32.576,97.495 34.301,97.495 34.301,98.476 37.601,98.476 37.601,97.495 39.326,97.495 39.326,91.226 40.151,91.226 40.151,88.426 39.326,88.426 39.326,85.196 37.601,85.196 37.601,84.275 34.301,84.275 34.301,85.196 32.576,85.196 32.576,88.426 31.051,88.426 31.051,83.726" style="fill:none;stroke-width:0.050000mm;stroke:black"/>
<polygon points="45.626,83.726 45.626,97.726 59.626,97.726 59.626,83.726" style="fill:none;stroke-width:0.050000mm;stroke:black"/>
<polygon points="71.176,65.100 71.176,65.926 64.906,65.926 64.906,67.651 63.926,67.651 63.926,70.951 64.906,70.951 64.906,72.676 69.376,72.676 69.376,74.201 64.676,74.201 64.676,88.201 69.376,88.201 69.376,89.726 64.906,89.726 64.906,91.451 63.926,91.451 63.926,94.751 64.906,94.751 64.906,96.476 71.176,96.476 71.176,97.301 73.976,97.301 73.976,96.476 77.206,96.476 77.206,94.751 78.126,94.751 78.126,91.451 77.206,91.451 77.206,89.726 73.976,89.726 73.976,88.201 78.676,88.201 78.676,74.201 73.976,74.201 73.976,72.676 77.206,72.676 77.206,70.951 78.126,70.951 78.126,67.651 77.206,67.651 77.206,65.926 73.976,65.926 73.976,65.100" style="fill:none;stroke-width:0.050000mm;stroke:black"/>
<polygon points="45.626,64.676 45.626,78.676 59.626,78.676 59.626,64.676" style="fill:none;stroke-width:0.050000mm;stroke:black"/>
<polygon points="26.576,64.676 26.576,78.676 40.576,78.676 40.576,64.676" style="fill:none;stroke-width:0.050000mm;stroke:black"/>
<polygon points="7.526,64.676 7.526,78.676 21.526,78.676 21.526,64.676" style="fill:none;stroke-width:0.050000mm;stroke:black"/>
<polygon points="212.313,45.626 212.313,59.626 226.313,59.626 226.313,45.626" style="fill:none;stroke-width:0.050000mm;stroke:black"/>
<polygon points="45.626,45.625 45.626,59.625 59.626,59.625 59.626,45.625" style="fill:none;stroke-width:0.050000mm;stroke:black"/>
<polygon points="26.576,45.625 26.576,59.625 40.576,59.625 40.576,45.625" style="fill:none;stroke-width:0.050000mm;stroke:black"/>
<polygon points="7.526,45.625 7.526,59.625 21.526,59.625 21.526,45.625" style="fill:none;stroke-width:0.050000mm;stroke:black"/>
<polygon points="71.176,27.000 71.176,27.825 64.906,27.825 64.906,29.550 63.926,29.550 63.926,32.850 64.906,32.850 64.906,34.575 69.376,34.575 69.376,36.100 64.676,36.100 64.676,50.100 69.376,50.100 69.376,51.625 64.906,51.625 64.906,53.350 63.926,53.350 63.926,56.650 64.906,56.650 64.906,58.375 71.176,58.375 71.176,59.200 73.976,59.200 73.976,58.375 77.206,58.375 77.206,56.650 78.126,56.650 78.126,53.350 77.206,53.350 77.206,51.625 73.976,51.625 73.976,50.100 78.676,50.100 78.676,36.100 73.976,36.100 73.976,34.575 77.206,34.575 77.206,32.850 78.126,32.850 78.126,29.550 77.206,29.550 77.206,27.825 73.976,27.825 73.976,27.000" style="fill:none;stroke-width:0.050000mm;stroke:black"/>
<polygon points="45.626,26.575 45.626,40.575 59.626,40.575 59.626,26.575" style="fill:none;stroke-width:0.050000mm;stroke:black"/>
<polygon points="26.576,26.575 26.576,40.575 40.576,40.575 40.576,26.575" style="fill:none;stroke-width:0.050000mm;stroke:black"/>
<polygon points="7.526,26.575 7.526,40.575 21.526,40.575 21.526,26.575" style="fill:none;stroke-width:0.050000mm;stroke:black"/>
<polygon points="64.676,7.526 64.676,21.526 78.676,21.526 78.676,7.526" style="fill:none;stroke-width:0.050000mm;stroke:black"/>
<polygon points="45.626,7.526 45.626,21.526 59.626,21.526 59.626,7.526" style="fill:none;stroke-width:0.050000mm;stroke:black"/>
<polygon points="26.576,7.526 26.576,21.526 40.576,21.526 40.576,7.526" style="fill:none;stroke-width:0.050000mm;stroke:black"/>
<polygon points="7.526,7.526 7.526,21.526 21.526,21.526 21.526,7.526" style="fill:none;stroke-width:0.050000mm;stroke:black"/>
</svg>
